<?xml version="1.0" encoding="UTF-8" standalone="no"?>
<!-- Created with Fritzing (https://fritzing.org/) -->

<svg
   height="0.83151394in"
   version="1.2"
   viewBox="0 0 67.757 59.868965"
   width="0.94106901in"
   x="0in"
   y="0in"
   id="svg45"
   sodipodi:docname="MOLEX_4PIN_MALE.svg"
   inkscape:version="1.4.2 (f4327f4, 2025-05-13)"
   xmlns:inkscape="http://www.inkscape.org/namespaces/inkscape"
   xmlns:sodipodi="http://sodipodi.sourceforge.net/DTD/sodipodi-0.dtd"
   xmlns="http://www.w3.org/2000/svg"
   xmlns:svg="http://www.w3.org/2000/svg">
  <defs
     id="defs45" />
  <sodipodi:namedview
     id="namedview45"
     pagecolor="#ffffff"
     bordercolor="#000000"
     borderopacity="0.25"
     inkscape:showpageshadow="2"
     inkscape:pageopacity="0.0"
     inkscape:pagecheckerboard="0"
     inkscape:deskcolor="#d1d1d1"
     inkscape:document-units="in"
     inkscape:zoom="9.2483591"
     inkscape:cx="45.305334"
     inkscape:cy="23.625813"
     inkscape:window-width="1920"
     inkscape:window-height="1009"
     inkscape:window-x="-8"
     inkscape:window-y="-8"
     inkscape:window-maximized="1"
     inkscape:current-layer="svg45" />
  <g
     partID="855130600"
     id="g45"
     transform="translate(0,17.465001)">
    <g
       id="breadboard">
      <polygon
         fill="#e6e6e6"
         points="4.92,0 62.837,0 67.757,6.323 0,6.323 "
         id="polygon11" />
      <rect
         fill="#666666"
         height="16.599001"
         width="67.757004"
         y="6.323"
         id="rect12"
         x="0" />
      <rect
         enable-background="new    "
         height="0.57499999"
         opacity="0.2"
         width="67.757004"
         y="6.323"
         id="rect13"
         x="0" />
      <rect
         enable-background="new    "
         height="0.57499999"
         opacity="0.2"
         width="67.757004"
         y="22.346001"
         id="rect14"
         x="0" />
      <g
         id="g44">
        <rect
           fill="#999999"
           height="6.9499998"
           width="66.533997"
           x="0.611"
           y="35.452"
           id="rect15" />
        <rect
           fill="#666666"
           height="14.666"
           width="66.533997"
           x="0.611"
           y="20.787001"
           id="rect16" />
        <rect
           enable-background="new    "
           height="0.42300001"
           opacity="0.2"
           width="66.533997"
           x="0.611"
           y="35.030998"
           id="rect17" />
        <g
           id="g40">
          <path
             d="m 58.218,29.097 c 0,-1.625 -1.317,-2.943 -2.944,-2.943 -1.625,0 -2.943,1.318 -2.943,2.943 0,1.627 2.136,2.944 2.943,2.944 0.809,0 2.944,-1.317 2.944,-2.944 z"
             fill="#e6e6e6"
             id="path17" />
          <path
             d="m 43.956,29.097 c 0,-1.625 -1.316,-2.943 -2.943,-2.943 -1.625,0 -2.943,1.318 -2.943,2.943 0,1.627 2.135,2.944 2.943,2.944 0.808,0 2.943,-1.317 2.943,-2.944 z"
             fill="#e6e6e6"
             id="path18" />
          <path
             d="m 29.634,29.097 c 0,-1.625 -1.317,-2.943 -2.944,-2.943 -1.624,0 -2.943,1.318 -2.943,2.943 0,1.627 2.134,2.944 2.942,2.944 0.809,0.001 2.944,-1.317 2.945,-2.944 z"
             fill="#e6e6e6"
             id="path19" />
          <path
             d="m 15.432,29.097 c 0,-1.625 -1.317,-2.943 -2.944,-2.943 -1.625,0 -2.943,1.318 -2.943,2.943 0,1.627 2.135,2.944 2.943,2.944 0.808,0 2.944,-1.317 2.944,-2.944 z"
             fill="#e6e6e6"
             id="path20" />
          <path
             d="m 58.218,33.641 c 0,-1.625 -1.317,-2.943 -2.944,-2.943 -1.625,0 -2.943,1.318 -2.943,2.943 0,1.627 2.136,2.944 2.943,2.944 0.809,0 2.944,-1.317 2.944,-2.944 z"
             fill="#e6e6e6"
             id="path21" />
          <path
             d="m 52.325,29.096 0.006,4.545 h 5.277 v -4.545 z"
             fill="#e6e6e6"
             id="path22" />
          <path
             d="m 55.274,36.586 c 0.809,0 2.336,-1.317 2.336,-2.944 h -0.003 v -4.546 h 0.611 v 4.545 c 0,1.627 -2.135,2.945 -2.944,2.945 z"
             fill="#808080"
             id="path23" />
          <path
             d="m 55.274,36.586 c -0.809,0 -2.335,-1.317 -2.335,-2.944 h 0.003 v -4.545 h -0.611 v 4.545 c 0,1.626 2.134,2.944 2.943,2.944 z"
             enable-background="new    "
             fill="#ffffff"
             opacity="0.2"
             id="path24" />
          <path
             d="m 43.956,33.641 c 0,-1.625 -1.316,-2.943 -2.943,-2.943 -1.625,0 -2.943,1.318 -2.943,2.943 0,1.627 2.135,2.944 2.943,2.944 0.808,0 2.943,-1.317 2.943,-2.944 z"
             fill="#e6e6e6"
             id="path25" />
          <path
             d="m 38.064,29.096 0.005,4.545 h 5.278 v -4.545 z"
             fill="#e6e6e6"
             id="path26" />
          <path
             d="m 41.012,36.586 c 0.809,0 2.335,-1.317 2.335,-2.944 h -0.002 v -4.546 h 0.61 v 4.545 c 0.001,1.627 -2.134,2.945 -2.943,2.945 z"
             fill="#808080"
             id="path27" />
          <path
             d="m 41.012,36.586 c -0.809,0 -2.335,-1.317 -2.335,-2.944 h 0.002 l 10e-4,-4.545 h -0.611 v 4.545 c 0,1.626 2.135,2.944 2.943,2.944 z"
             enable-background="new    "
             fill="#ffffff"
             opacity="0.2"
             id="path28" />
          <path
             d="m 29.634,33.641 c 0,-1.625 -1.317,-2.943 -2.944,-2.943 -1.624,0 -2.943,1.318 -2.943,2.943 0,1.627 2.134,2.944 2.942,2.944 0.809,10e-4 2.944,-1.317 2.945,-2.944 z"
             fill="#e6e6e6"
             id="path29" />
          <path
             d="m 23.742,29.096 0.004,4.545 h 5.278 v -4.545 z"
             fill="#e6e6e6"
             id="path30" />
          <path
             d="m 26.689,36.586 c 0.81,0 2.335,-1.317 2.336,-2.944 h -0.002 v -4.546 h 0.611 v 4.545 c -0.001,1.627 -2.136,2.945 -2.945,2.945 z"
             fill="#808080"
             id="path31" />
          <path
             d="m 26.689,36.586 c -0.809,0 -2.334,-1.317 -2.333,-2.944 h 0.002 v -4.546 h -0.611 v 4.545 c -0.001,1.627 2.133,2.945 2.942,2.945 z"
             enable-background="new    "
             fill="#ffffff"
             opacity="0.2"
             id="path32" />
          <path
             d="m 15.432,33.641 c 0,-1.625 -1.317,-2.943 -2.944,-2.943 -1.625,0 -2.943,1.318 -2.943,2.943 0,1.627 2.135,2.944 2.943,2.944 0.808,0 2.944,-1.317 2.944,-2.944 z"
             fill="#e6e6e6"
             id="path33" />
          <path
             d="m 57.633,29.097 c 0,-1.625 -1.317,-2.943 -2.944,-2.943 h 0.585 c 1.627,0 2.944,1.318 2.944,2.943 z"
             fill="#808080"
             id="path34" />
          <path
             d="m 43.371,29.097 c 0,-1.625 -1.316,-2.943 -2.943,-2.943 h 0.585 c 1.627,0 2.943,1.318 2.943,2.943 z"
             fill="#808080"
             id="path35" />
          <path
             d="m 29.049,29.097 c 0,-1.625 -1.317,-2.943 -2.944,-2.943 h 0.585 c 1.627,0 2.944,1.318 2.944,2.943 z"
             fill="#808080"
             id="path36" />
          <path
             d="m 14.847,29.097 c 0,-1.625 -1.317,-2.943 -2.944,-2.943 h 0.585 c 1.627,0 2.944,1.318 2.944,2.943 z"
             fill="#808080"
             id="path37" />
          <path
             d="m 9.539,29.096 0.005,4.545 h 5.278 v -4.545 z"
             fill="#e6e6e6"
             id="path38" />
          <path
             d="m 12.487,36.586 c 0.809,0 2.335,-1.317 2.335,-2.944 H 14.82 v -4.546 h 0.611 v 4.545 c 0.001,1.627 -2.135,2.945 -2.944,2.945 z"
             fill="#808080"
             id="path39" />
          <path
             d="m 12.487,36.586 c -0.809,0 -2.335,-1.317 -2.335,-2.944 h 0.002 l 10e-4,-4.545 H 9.544 v 4.545 c 0,1.626 2.135,2.944 2.943,2.944 z"
             enable-background="new    "
             fill="#ffffff"
             opacity="0.2"
             id="path40" />
        </g>
        <polygon
           fill="#e6e6e6"
           points="0.611,12.076 0.611,32.138 6.545,26.382 61.212,26.382 67.146,32.138 67.146,12.076 61.212,6.323 6.545,6.323 "
           id="polygon40" />
        <path
           d="M 67.146,42.404 V 32.138 L 61.212,26.382 H 6.545 L 0.611,32.138 V 42.404 Z M 1.602,32.556 6.947,27.374 h 53.864 l 5.346,5.182 v 8.857 H 1.602 Z"
           fill="#b3b3b3"
           id="path41" />
        <polygon
           fill="#cccccc"
           points="61.212,6.323 67.146,12.076 67.146,32.138 61.212,26.382 "
           id="polygon41" />
        <polygon
           fill="#f2f2f2"
           points="6.545,6.323 0.611,12.076 0.611,32.138 6.545,26.382 "
           id="polygon42" />
        <rect
           enable-background="new    "
           height="0.26800001"
           opacity="0.2"
           width="66.533997"
           x="0.611"
           y="42.136002"
           id="rect42" />
        <polygon
           enable-background="new    "
           fill="#ffffff"
           opacity="0.3"
           points="6.545,26.382 0.611,32.138 0.611,31.56 6.545,25.806 61.212,25.806 67.146,31.56 67.146,32.138 61.212,26.382 "
           id="polygon43" />
        <polygon
           enable-background="new    "
           fill="#ffffff"
           opacity="0.2"
           points="6.545,6.901 0.611,12.654 0.611,12.076 6.545,6.323 61.212,6.323 67.146,12.076 67.146,12.654 61.212,6.901 "
           id="polygon44" />
        <rect
           style="fill:#ffee00;fill-opacity:1;stroke-width:0.75"
           id="rect1"
           width="5.6692944"
           height="14.173236"
           x="9.5692692"
           y="-13.867319" />
        <rect
           style="fill:#010101;fill-opacity:1;stroke-width:0.75"
           id="rect2"
           width="5.6692944"
           height="14.173236"
           x="23.842077"
           y="-13.948415" />
        <rect
           style="fill:#000000;fill-opacity:1;stroke-width:0.75"
           id="rect3"
           width="5.6692944"
           height="14.173236"
           x="38.277077"
           y="-13.948415" />
        <rect
           style="fill:#ff1800;fill-opacity:1;stroke-width:0.75"
           id="rect4"
           width="5.6692944"
           height="14.173236"
           x="52.468788"
           y="-13.948415" />
      </g>
      <polygon
         enable-background="new    "
         fill="#ffffff"
         opacity="0.4"
         points="62.837,0 4.92,0 4.725,0.491 63.032,0.491 "
         id="polygon12" />
      <g
         id="g41"
         transform="translate(0,-21.629331)">
        <circle
           cx="41.008999"
           cy="7.7292967"
           fill="none"
           id="connector3pin"
           r="3.5650001" />
        <circle
           cx="55.271999"
           cy="7.7292967"
           fill="none"
           id="connector1pin"
           r="3.5650001" />
        <circle
           cx="26.747"
           cy="7.7292967"
           fill="none"
           id="connector2pin"
           r="3.5650001" />
        <circle
           cx="12.485"
           cy="7.7292967"
           fill="none"
           id="connector0pin"
           r="3.5650001" />
      </g>
    </g>
  </g>
</svg>
